# xmcd
#
# Track frame offsets:
#	225
#	14181
#	23097
#	38931
#	48697
#	59415
#	74355
#	90396
#	102061
#	113919
#	127193
#	144093
#	158418
#	172255
#	184785
#	194573
#	202156
#	212515
#	223323
#	234752
#
# Disc length: 3263 seconds
#
# Revision: 1
# Processed by: cddbd v1.5.2PL0 Copyright (c) Steve Scherf et al.
# Submitted via: audiograbber 1.83.01
#
DISCID=2c0cbc14
DTITLE=Haus Raphael  - Lobpreis LIVE! 4 Lebendiger Lobpreis
DYEAR=1900
DGENRE=Lobpreis
TTITLE0=Halleluja Psalm 150
TTITLE1=Klatscht in die Hände
TTITLE2=Heiliger Geist komm i deiner Kraft
TTITLE3=Gott ist gut
TTITLE4=Halleluja jauchzet dem Hernn
TTITLE5=Halleluja danket Gott
TTITLE6=Singt Gott jubelt ihm
TTITLE7=Singt und tanzt
TTITLE8=Tanze dem Herrn
TTITLE9=Denn der Geist und die Braut
TTITLE10=Halleluja Jesus ist Herr
TTITLE11=Komm o komm erfülle diesen Tempel
TTITLE12=Der König lebt
TTITLE13=Vater ich will dich preisen
TTITLE14=Ehre sei Gott 
TTITLE15=Heilig bist du
TTITLE16=Von ganzem Herzen preise ich dich
TTITLE17=Die Freude am Herrn
TTITLE18=Schließ uns zusammen Herr
TTITLE19=Freuet euch alle Zeit
EXTD=
EXTT0=
EXTT1=
EXTT2=
EXTT3=
EXTT4=
EXTT5=
EXTT6=
EXTT7=
EXTT8=
EXTT9=
EXTT10=
EXTT11=
EXTT12=
EXTT13=
EXTT14=
EXTT15=
EXTT16=
EXTT17=
EXTT18=
EXTT19=
PLAYORDER=
